<svg xmlns="http://www.w3.org/2000/svg" viewBox="0 0 64 64" id="live-broadcasting"><rect width="58" height="44" x="3" y="10" fill="#eb5d40" rx="5"></rect><path fill="#c7c1bf" d="M21 38H14V25a1 1 0 0 0-2 0V39a1 1 0 0 0 1 1h8a1 1 0 0 0 0-2zM51 26a1 1 0 0 0 0-2H43a1 1 0 0 0-1 1V39a1 1 0 0 0 1 1h8a1 1 0 0 0 0-2H44V33h7a1 1 0 0 0 0-2H44V26zM25 24a1 1 0 0 0-1 1V39a1 1 0 0 0 2 0V25A1 1 0 0 0 25 24zM39.336 24.058a1 1 0 0 0-1.277.606L34 36.027 29.941 24.664a1 1 0 1 0-1.882.672l5 14a1 1 0 0 0 1.882 0l5-14A1 1 0 0 0 39.336 24.058z"></path><circle cx="53" cy="18" r="2" fill="#c7c1bf"></circle><path fill="#231f20" d="M56,54H8a5.006,5.006,0,0,1-5-5V15a5.006,5.006,0,0,1,5-5H56a5.006,5.006,0,0,1,5,5V49A5.006,5.006,0,0,1,56,54ZM8,12a3,3,0,0,0-3,3V49a3,3,0,0,0,3,3H56a3,3,0,0,0,3-3V15a3,3,0,0,0-3-3Z"></path><path fill="#231f20" d="M21 40H13a1 1 0 0 1-1-1V25a1 1 0 0 1 2 0V38h7a1 1 0 0 1 0 2zM51 40H43a1 1 0 0 1-1-1V25a1 1 0 0 1 1-1h8a1 1 0 0 1 0 2H44V38h7a1 1 0 0 1 0 2zM25 40a1 1 0 0 1-1-1V25a1 1 0 0 1 2 0V39A1 1 0 0 1 25 40zM34 40a1 1 0 0 1-.941-.664l-5-14a1 1 0 1 1 1.882-.672L34 36.027l4.059-11.363a1 1 0 1 1 1.882.672l-5 14A1 1 0 0 1 34 40z"></path><path fill="#231f20" d="M51 33H43a1 1 0 0 1 0-2h8a1 1 0 0 1 0 2zM53 20a2 2 0 1 1 2-2A2 2 0 0 1 53 20zm0-2h0zm0 0h0zm0 0h0zm0 0h0zm0 0h0zm0 0h0zm0 0h0zm0 0h0z"></path></svg>